<svg width="771" height="516" viewBox="0 0 771 516" fill="none" xmlns="http://www.w3.org/2000/svg">
<path d="M196.285 57.4578C265.537 67.8932 258.897 164.656 258.897 164.656L187.748 216.832C187.748 216.832 131.743 251.516 95.7281 237.702C53.295 221.427 12.2466 149.478 12.2466 149.478C12.2466 149.478 35.5894 152.34 75.8064 135.247C116.681 117.875 152.368 50.84 196.285 57.4578Z" fill="#FFD5B6"/>
<path d="M570.227 61.2524C500.975 71.6878 507.616 168.451 507.616 168.451L578.765 220.627C578.765 220.627 634.769 255.311 670.784 241.497C713.217 225.221 754.266 153.272 754.266 153.272C754.266 153.272 730.923 156.134 690.706 139.042C649.831 121.67 614.145 54.6346 570.227 61.2524Z" fill="#FFD5B6"/>
<path d="M389.811 108.227C274.075 108.227 220.002 149.968 161.185 220.168C111.169 279.865 84.3442 298.734 84.3442 365.312C84.3442 471.146 182.056 500.021 389.811 500.021C597.566 500.021 693.38 471.146 693.38 365.312C693.38 298.734 666.555 279.865 616.539 220.168C557.723 149.968 505.547 108.227 389.811 108.227Z" fill="#FFD5B6"/>
<path d="M196.349 71.0628C254.849 68.5628 258.349 141.563 258.349 141.563C258.349 141.563 231.349 85.0628 189.349 91.0628C153.69 96.157 106.625 139.87 81.3491 150.563C22.1497 175.607 14.3491 165.563 14.3491 165.563C14.3491 165.563 49.1767 152.83 76.3491 138.063C122.349 113.063 146.191 73.2063 196.349 71.0628Z" fill="white"/>
<path d="M573.849 71.0628C515.349 68.5628 511.849 141.563 511.849 141.563C511.849 141.563 538.849 85.0628 580.849 91.0628C616.508 96.157 663.573 139.87 688.849 150.563C748.048 175.607 755.849 165.563 755.849 165.563C755.849 165.563 721.022 152.83 693.849 138.063C647.849 113.063 624.007 73.2063 573.849 71.0628Z" fill="white"/>
<path fill-rule="evenodd" clip-rule="evenodd" d="M83.7017 360.564C96.5442 439.243 194.58 461.418 387.713 461.418C572.875 461.418 669.118 441.035 687.861 370.019C688.872 376.774 689.385 384.128 689.385 392.29C689.385 486.339 593.571 512 385.816 512C178.061 512 80.3492 486.339 80.3491 392.29C80.3491 380.158 81.4774 369.809 83.7017 360.564Z" fill="#F0BB93"/>
<path d="M512.3 137.267C479.11 120.869 439.299 112.022 386.016 112.022C332.733 112.022 292.52 120.869 258.896 137.267" stroke="#43110A" stroke-width="17.0758"/>
<path d="M146.76 249.484C148.181 247.758 148.903 245.546 148.734 243.306C148.566 241.067 147.527 238.988 145.841 237.523C144.154 236.058 141.951 235.32 139.71 235.467C137.469 235.614 135.379 236.637 133.869 238.286C133.869 238.286 133.869 238.286 133.869 238.286C122.188 251.1 110.352 263.908 99.6379 278.458C79.6564 303.98 69.332 338.857 70.1141 371.005C70.1141 371.005 70.1141 371.005 70.1141 371.005C69.421 403.748 81.5958 440.258 108.524 462.225C134.734 484.372 166.879 494.324 197.875 501.155C260.495 514.002 323.347 514.895 386.016 515.2C386.016 515.2 386.016 515.2 386.016 515.2C448.435 514.889 510.991 514.283 573.493 501.658C604.419 494.927 636.591 485.059 662.812 462.686C689.749 440.463 701.639 403.706 700.969 371.005C700.969 371.005 700.969 371.005 700.969 371.005C702.02 337.426 688.172 301.877 666.732 277.189C655.404 263.256 643.3 250.876 631.522 238.286C630 236.666 627.917 235.655 625.684 235.514C623.452 235.373 621.261 236.107 619.585 237.563C617.909 239.019 616.875 241.086 616.703 243.315C616.53 245.546 617.24 247.75 618.631 249.484C618.631 249.484 618.631 249.484 618.631 249.484C629.519 263.082 640.738 276.182 650.577 289.627C669.141 313.983 678.724 340.994 678.201 371.005C678.201 371.005 678.201 371.005 678.201 371.005C682.848 432.403 628 470.352 569.023 481.271C509.931 494.207 447.811 495.964 386.016 496.227C386.016 496.227 386.016 496.227 386.016 496.227C323.962 495.966 261.601 494.416 202.124 481.692C142.988 471.046 86.2998 433.127 90.9845 371.005C90.9845 371.005 90.9845 371.005 90.9845 371.005C90.5812 341.26 98.1305 313.798 115.396 289.617C124.747 275.957 135.776 262.863 146.76 249.484Z" fill="#43110A"/>
<path d="M255.108 140.216C255.188 141.656 255.743 143.06 256.747 144.122C257.751 145.185 259.108 145.818 260.542 145.885C261.975 145.952 263.386 145.447 264.484 144.483C265.583 143.519 266.266 142.173 266.479 140.747C266.479 140.747 266.479 140.747 266.479 140.747C267.596 130.79 267.255 121.321 265.625 111.542C262.998 79.5846 228.826 47.8411 194.388 50.4445C188.448 50.3838 182.499 51.1054 176.802 52.5192C125.026 68.2563 108.503 117.182 71.2845 134.306C68.5373 135.523 65.8251 136.641 63.0475 137.695C46.2804 144.091 26.2229 146.345 11.5873 144.613C2.53002 143.107 -2.52112 150.947 1.27277 159.309C2.2123 161.378 3.15753 163.303 4.17406 165.273C24.0461 199.921 42.8499 239.241 90.4184 255.775C90.5196 255.8 90.621 255.824 90.7225 255.849C114.81 261.792 140.696 256.688 160.409 244.232C168.633 239.076 176.161 232.776 182.055 225.403C173.216 228.487 164.273 230.43 155.631 231.822C134.747 235.117 115.337 234.486 96.9389 230.024C96.8823 230.011 96.8257 229.997 96.769 229.983C67.9238 221.317 41.8265 186.607 22.4284 155.156C21.3993 153.431 20.2901 151.564 19.4255 150.115L9.11095 164.81C32.1946 164.874 49.3681 156.76 67.7575 150.113C70.7056 148.994 73.5942 147.857 76.5334 146.657C119.797 126.741 147.097 85.1045 182.727 76.4621C186.58 75.5085 190.451 74.9959 194.388 74.9396C220.474 73.6929 241.284 88.7856 249.761 115.489C252.46 123.333 254.347 132.114 255.108 140.216Z" fill="#43110A"/>
<path d="M515.059 140.216C514.979 141.656 514.424 143.06 513.419 144.122C512.416 145.185 511.058 145.818 509.625 145.885C508.192 145.952 506.781 145.447 505.683 144.483C504.584 143.519 503.901 142.173 503.687 140.747C503.687 140.747 503.687 140.747 503.687 140.747C502.571 130.79 502.911 121.321 504.542 111.542C507.169 79.5846 541.341 47.8411 575.779 50.4445C581.719 50.3838 587.667 51.1054 593.364 52.5192C645.141 68.2563 661.664 117.182 698.882 134.306C701.629 135.523 704.342 136.641 707.119 137.695C723.886 144.091 743.944 146.345 758.579 144.613C767.637 143.107 772.688 150.947 768.894 159.309C767.954 161.378 767.009 163.303 765.993 165.273C746.121 199.921 727.317 239.241 679.748 255.775C679.647 255.8 679.546 255.824 679.444 255.849C655.356 261.792 629.471 256.688 609.758 244.232C601.534 239.076 594.006 232.776 588.111 225.403C596.951 228.487 605.894 230.43 614.536 231.822C635.42 235.117 654.83 234.486 673.228 230.024C673.284 230.011 673.341 229.997 673.398 229.983C702.243 221.317 728.34 186.607 747.738 155.156C748.767 153.431 749.877 151.564 750.741 150.115L761.056 164.81C737.972 164.874 720.799 156.76 702.409 150.113C699.461 148.994 696.573 147.857 693.633 146.657C650.37 126.741 623.07 85.1045 587.44 76.4621C583.587 75.5085 579.716 74.9959 575.779 74.9396C549.692 73.6929 528.883 88.7856 520.406 115.489C517.706 123.333 515.819 132.114 515.059 140.216Z" fill="#43110A"/>
<path d="M189.957 213.813C196.957 205.813 208.457 192.313 212.469 181.286C212.469 181.286 210.509 159.008 193.496 143.373C184.243 134.871 162.19 131.956 146.063 144.289C122.372 157.774 87.2463 164.21 87.2463 164.21C87.2463 164.21 75.1698 229.94 189.957 213.813Z" fill="#FFB6D9"/>
<path d="M579.969 213.813C572.969 205.813 561.469 192.313 557.457 181.286C557.457 181.286 559.417 159.008 576.43 143.373C585.683 134.871 607.736 131.956 623.863 144.289C647.553 157.774 682.679 164.21 682.679 164.21C682.679 164.21 694.756 229.94 579.969 213.813Z" fill="#FFB6D9"/>
<path d="M207.895 182.433C208.315 183.274 208.982 183.999 209.84 184.42C210.698 184.841 211.666 184.928 212.553 184.653C213.44 184.379 214.191 183.761 214.661 182.929C215.132 182.097 215.273 181.123 215.145 180.191C215.145 180.191 215.145 180.191 215.145 180.191C214.689 177.436 214.075 174.842 213.362 172.276C208.819 157.199 200.524 139.621 180.423 133.504C178.689 133.045 177.038 132.697 175.237 132.432C156.684 129.414 141.854 140.705 130.722 147.713C119.147 155.288 106.925 161.252 92.858 164.554C90.3777 165.148 87.9384 165.672 85.3491 166.134C87.9387 166.594 90.4378 166.955 93.0406 167.201C123.13 173.007 152.692 145.569 172.76 149.327C173.918 149.498 175.014 149.711 176.212 149.997C186.589 152.312 196.572 163.854 204.269 176.21C205.528 178.215 206.83 180.481 207.895 182.433Z" fill="#43110A"/>
<path d="M562.353 182.433C561.933 183.274 561.266 183.999 560.407 184.42C559.55 184.841 558.582 184.928 557.694 184.653C556.807 184.379 556.057 183.761 555.587 182.929C555.116 182.097 554.974 181.123 555.102 180.191C555.102 180.191 555.102 180.191 555.102 180.191C555.559 177.436 556.172 174.842 556.886 172.276C561.429 157.199 569.723 139.621 589.825 133.504C591.559 133.045 593.21 132.697 595.01 132.432C613.563 129.414 628.394 140.705 639.526 147.713C651.1 155.288 663.323 161.252 677.39 164.554C679.87 165.148 682.309 165.672 684.898 166.134C682.309 166.594 679.81 166.955 677.207 167.201C647.118 173.007 617.556 145.569 597.488 149.327C596.329 149.498 595.233 149.711 594.036 149.997C583.658 152.312 573.676 163.854 565.978 176.21C564.719 178.215 563.417 180.481 562.353 182.433Z" fill="#43110A"/>
<path fill-rule="evenodd" clip-rule="evenodd" d="M423.908 387.132C423.98 388.194 424.02 389.269 424.025 390.353C424.116 412.563 404.695 430.769 391.747 430.769C378.8 430.769 359.231 412.964 359.14 390.754C359.135 389.533 359.176 388.325 359.257 387.132H423.908Z" fill="#43110A"/>
<path d="M385.46 275.19C329.137 275.19 274.468 307.445 282.057 352.031C289.646 396.618 347.514 378.594 385.46 378.594C423.407 378.594 479.378 396.618 486.967 352.031C494.556 307.445 441.784 275.19 385.46 275.19Z" fill="#FFB6D9"/>
<path d="M387.358 277.088C331.034 277.088 276.366 309.342 283.955 353.929C291.544 398.515 349.411 380.491 387.358 380.491C425.304 380.491 481.275 398.515 488.864 353.929C496.453 309.342 443.681 277.088 387.358 277.088Z" stroke="#43110A" stroke-width="17.0758"/>
<path d="M372.42 316.931C371.801 315.251 370.876 313.64 369.524 312.452C368.174 311.265 366.526 310.597 364.831 310.597C363.135 310.597 361.487 311.265 360.137 312.452C358.786 313.64 357.86 315.251 357.241 316.931C357.052 317.453 356.871 317.975 356.701 318.496C355.164 323.192 354.395 327.888 354.395 332.584C354.395 337.28 355.164 341.976 356.701 346.671C356.871 347.193 357.052 347.715 357.241 348.237C357.86 349.917 358.786 351.528 360.137 352.715C361.487 353.903 363.135 354.571 364.831 354.571C366.526 354.571 368.174 353.903 369.524 352.715C370.876 351.528 371.801 349.917 372.42 348.237C372.61 347.715 372.79 347.193 372.961 346.671C374.497 341.976 375.266 337.28 375.266 332.584C375.266 327.888 374.497 323.192 372.961 318.496C372.79 317.975 372.61 317.453 372.42 316.931Z" fill="#43110A"/>
<path d="M414.161 316.931C413.542 315.251 412.616 313.64 411.265 312.452C409.915 311.265 408.267 310.597 406.571 310.597C404.876 310.597 403.228 311.265 401.877 312.452C400.526 313.64 399.601 315.251 398.982 316.931C398.792 317.453 398.612 317.975 398.441 318.496C396.905 323.192 396.136 327.888 396.136 332.584C396.136 337.28 396.905 341.976 398.441 346.671C398.612 347.193 398.792 347.715 398.982 348.237C399.601 349.917 400.526 351.528 401.877 352.715C403.228 353.903 404.876 354.571 406.571 354.571C408.267 354.571 409.915 353.903 411.265 352.715C412.616 351.528 413.542 349.917 414.161 348.237C414.35 347.715 414.53 347.193 414.701 346.671C416.238 341.976 417.006 337.28 417.006 332.584C417.006 327.888 416.238 323.192 414.701 318.496C414.53 317.975 414.35 317.453 414.161 316.931Z" fill="#43110A"/>
<circle cx="214.295" cy="339.946" r="37.9462" fill="#F07D7F"/>
<path d="M199.056 329.62L211.526 355.165" stroke="#F73B3E" stroke-width="6" stroke-linecap="round" stroke-linejoin="round"/>
<path d="M216.716 325L229.186 350.545" stroke="#F73B3E" stroke-width="6" stroke-linecap="round" stroke-linejoin="round"/>
<circle cx="556.295" cy="341.946" r="37.9462" fill="#F07D7F"/>
<path d="M541.056 331.62L553.526 357.165" stroke="#F73B3E" stroke-width="6" stroke-linecap="round" stroke-linejoin="round"/>
<path d="M558.716 327L571.186 352.545" stroke="#F73B3E" stroke-width="6" stroke-linecap="round" stroke-linejoin="round"/>
<path d="M281.356 153.363C357.007 131.823 408.928 129.595 477.807 129.595L485.568 141.722C401.167 155.304 365.757 162.095 293.483 185.378L281.356 153.363Z" fill="#43110A" stroke="#43110A" stroke-width="5.82078" stroke-linecap="round" stroke-linejoin="round"/>
<path d="M421.54 27.7315C349.266 9.78411 307.665 46.4156 292.54 101.584C277.415 156.753 300.102 220.775 369.607 227.726L421.54 27.7315Z" fill="#CDAF27" stroke="#43110A" stroke-width="11.3505" stroke-linejoin="bevel"/>
<ellipse cx="394.551" cy="129.798" rx="83.4415" ry="103.578" transform="rotate(15.3317 394.551 129.798)" fill="#FDDB3C"/>
<path d="M311.916 128.14L451.614 45.1938C472.957 62.1711 471.502 77.6932 476.353 98.551L311.916 150.938C311.916 139.296 310.461 138.326 311.916 128.14Z" fill="#FFF1AF"/>
<ellipse cx="395.173" cy="128.07" rx="83.4415" ry="103.578" transform="rotate(15.3317 395.173 128.07)" stroke="#43110A" stroke-width="11.3505"/>
<rect x="281.841" y="182.921" width="210.49" height="95.9881" transform="rotate(-12.0963 281.841 182.921)" fill="#FFD5B6"/>
<path d="M288.147 169.371C335.198 156.274 414.264 144.632 484.113 137.356L486.539 142.207C402.137 155.789 344.415 170.826 293.483 185.378L288.147 169.371Z" fill="#43110A" stroke="#43110A" stroke-width="5.82078" stroke-linecap="round" stroke-linejoin="round"/>
<circle cx="321.682" cy="253.474" r="12.3325" fill="#43110A"/>
<circle cx="448.801" cy="253.474" r="12.3325" fill="#43110A"/>
</svg>
